<svg width="382" height="380" viewBox="0 0 382 380" fill="none" xmlns="http://www.w3.org/2000/svg">
<path d="M373.194 300.47C377.464 248.87 355.794 209.47 315.914 178.59C304.284 169.59 290.674 164.03 278.114 156.65C250.484 140.41 228.484 119.02 216.694 88.5C211.324 74.61 209.594 60.16 210.564 45.35C210.654 43.88 210.764 42.35 210.894 40.46C182.744 56.92 164.504 79.15 163.834 112.92C163.534 127.63 165.504 142.09 167.964 156.61C163.854 151.42 161.334 145.38 159.214 139.28C147.534 105.65 153.564 75.15 176.134 47.86C195.574 24.35 221.074 10.15 250.994 0C245.994 6.24 241.634 11.21 238.394 17C226.554 38.09 226.834 59.55 236.464 81.18C246.224 103.08 262.374 120.01 280.034 135.61C297.694 151.21 318.034 163.32 337.224 176.91C366.224 197.44 381.584 225.74 381.684 261.61C381.77 275.768 379.304 289.826 374.404 303.11C374.174 303.74 374.114 304.39 373.354 304.61C373.033 303.971 372.853 303.272 372.825 302.557C372.797 301.843 372.923 301.131 373.194 300.47V300.47Z" fill="#3182CE" fill-opacity="0.5"/>
<path d="M320.154 354.66C322.649 345.147 324.572 335.493 325.914 325.75C334.914 255.24 288.094 203.1 227.284 195.31C213.454 193.54 199.394 193.65 185.484 192.45C173.004 191.36 160.804 188.98 150.194 181.58C142.194 176.02 137.304 168.39 134.544 159.18C131.685 149.314 127.709 139.805 122.694 130.84C116.914 120.69 108.694 115.21 96.6041 116.37C89.5041 117.06 85.524 120.1 83.294 127C81.3911 133.046 80.6946 139.406 81.2441 145.72C81.4741 148.81 80.144 149.67 77.624 150.41C50.544 158.31 28.044 172.91 11.404 196C7.39404 201.55 4.39405 207.55 1.19405 213.55C-0.515947 212.33 0.0440478 210.93 0.274048 209.43C4.18405 183.65 19.5341 166.43 41.6141 154.35C48.2578 150.598 55.3698 147.743 62.764 145.86C66.694 144.91 67.8241 142.93 68.5241 139.35C70.8341 127.56 75.054 116.74 85.234 109.26C100.504 98.0301 121.074 102.61 130.094 119.26C133.672 125.998 136.682 133.022 139.094 140.26C147.224 163.99 165.154 175.65 188.504 180.7C202.564 183.7 216.924 183.7 231.184 184.44C262.784 185.97 290.554 195.96 312.564 219.59C331.354 239.75 343.194 262.86 342.804 291.02C342.484 314.08 334.524 334.75 321.894 353.78C321.704 354.08 321.294 354.13 320.154 354.66Z" fill="#3182CE" fill-opacity="0.5"/>
<path d="M185.444 365.67C178.044 365.15 170.624 364.73 163.234 364.09C152.642 363.093 141.957 364.094 131.734 367.04C125.304 368.94 120.224 372.68 118.014 379.67C114.294 372.14 116.774 364.58 124.014 361.28C133.774 356.8 144.124 358.16 154.324 358.81C156.774 358.96 159.244 359.19 162.094 359.45C159.014 350.91 155.974 342.58 154.684 333.81C152.414 318.34 153.314 303.45 163.284 290.33C170.524 280.8 180.664 275.8 191.644 272.33C217.404 264.17 239.404 271.72 258.774 289.19C266.389 295.904 272.739 303.927 277.524 312.88C274.664 310.23 271.814 307.55 268.934 304.88C258.174 295 245.934 287.78 231.524 284.68C199.924 277.9 171.154 296.68 164.524 328.28C162.604 337.51 162.694 346.7 163.674 355.99C164.014 359.26 165.574 360.73 168.814 361.27C174.454 362.2 180.034 363.52 185.634 364.68L185.444 365.67Z" fill="#3182CE" fill-opacity="0.5"/>
<path d="M8.23401 265.44C14.774 259.44 21.944 257.27 29.704 256.34C44.104 254.6 58.004 257.7 71.844 260.79C79.094 262.4 83.934 259.57 88.324 254.5C95.254 246.5 100.634 237.33 108.324 229.9C117.644 220.84 135.924 218.34 149.164 225.5C142.064 225.8 135.334 226.31 128.834 228.03C115.834 231.48 107.934 240.45 103.084 252.6C101.792 255.955 100.241 259.205 98.444 262.32C94.514 268.95 89.094 270.9 81.594 269.4C62.874 265.65 44.214 261.4 24.874 262.73C19.494 263.1 14.394 264.55 8.23401 265.44Z" fill="#3182CE" fill-opacity="0.5"/>
<path d="M56.1241 177.83L51.6341 180.99C55.3041 182.92 59.1641 184.47 57.9841 189.61C56.8441 194.54 50.6841 200.23 45.3241 200.78C42.6911 201.096 40.0207 200.826 37.5041 199.99C34.6141 198.99 35.8941 194.74 32.5041 194.54C32.3516 194.096 32.3273 193.618 32.4341 193.16C34.8841 187.8 46.6841 177.08 56.1241 177.83Z" fill="#3182CE" fill-opacity="0.5"/>
<path d="M373.194 300.47C373.244 301.85 373.304 303.22 373.354 304.6C373.234 305.09 372.894 306.28 372.604 305.52C371.994 303.95 371.574 301.98 373.194 300.47Z" fill="#3182CE" fill-opacity="0.5"/>
</svg>
